<svg width="80" height="32" viewBox="0 0 80 32" fill="none" xmlns="http://www.w3.org/2000/svg">
<rect width="80" height="32" rx="6" fill="#5865F2"/>
<g fill="white">
<path d="M12 10L16 18L20 10H23L17 22H15L9 10H12Z"/>
<path d="M24 16C24 13.2 26.2 11 29 11C31.8 11 34 13.2 34 16C34 18.8 31.8 21 29 21C26.2 21 24 18.8 24 16ZM27 16C27 17.1 27.9 18 29 18C30.1 18 31 17.1 31 16C31 14.9 30.1 14 29 14C27.9 14 27 14.9 27 16Z"/>
<path d="M35 16C35 13.2 37.2 11 40 11C42.8 11 45 13.2 45 16C45 18.8 42.8 21 40 21C37.2 21 35 18.8 35 16ZM38 16C38 17.1 38.9 18 40 18C41.1 18 42 17.1 42 16C42 14.9 41.1 14 40 14C38.9 14 38 14.9 38 16Z"/>
<text x="46" y="19" font-family="Arial, sans-serif" font-size="10" font-weight="bold">Kassa</text>
</g>
</svg>

